<svg width="384" height="384" viewBox="0 0 384 384" fill="transparent"
    xmlns="http://www.w3.org/2000/svg">
    <path d="M192 352C192 352 320 288 320 192V80L192 32L64 80V192C64 288 192 352 192 352Z" stroke="white" stroke-width="15" stroke-linecap="round" stroke-linejoin="round"/>
    <path d="M164.97 127.907L154.877 138H141.89V127.907H148.136V87.46H164.97V127.907ZM133.016 127.907H139.224V138H126.275L116.144 127.907V87.46H133.016V127.907ZM124.066 73.9775H136.863V82.3945H124.066V73.9775ZM144.251 73.9775H157.048V82.3945H144.251V73.9775ZM222.061 138H204.16L173.539 87.46H191.325L222.061 138ZM173.539 138V92.2588L188.202 116.291V138H173.539ZM222.061 87.46V133.201L207.398 109.055V87.46H222.061ZM230.211 127.222H235.277V98.2002H230.211V87.46H257.176V98.2002H252.111V127.222H257.176V138H230.211V127.222ZM237.371 73.9775H250.168V82.3945H237.371V73.9775ZM83.009 230.478H66.4797L69.9836 220.461H79.1243L65.6038 185.46H82.0188L102.166 236H85.1418L83.009 230.478ZM61.9856 236H45.7229L63.7756 187.745L71.2405 207.816L61.9856 236ZM106.965 236V185.46H123.799V236H106.965ZM126.465 195.553V185.46H145.698L155.829 195.553V210.711L148.06 218.48L147.527 217.414L131.721 219.509L132.33 220.842H126.465V211.054H139.11V195.553H126.465ZM157.543 236H139.567L132.33 220.842H145.698L148.06 218.48L157.543 236ZM180.395 215.243V236H163.561V185.46H180.395V205.493H196.505V215.243H180.395ZM183.061 195.248V185.46H209.378V200.085H193.534V195.248H183.061ZM183.061 236V225.907H192.544V220.842H209.378V236H183.061ZM266.012 236H248.112L217.49 185.46H235.277L266.012 236ZM217.49 236V190.259L232.154 214.291V236H217.49ZM266.012 185.46V231.201L251.349 207.055V185.46H266.012ZM308.097 230.478H291.568L295.072 220.461H304.212L290.692 185.46H307.107L327.254 236H310.23L308.097 230.478ZM287.073 236H270.811L288.864 187.745L296.328 207.816L287.073 236Z" fill="white"/>
    <path d="M164.97 127.907L165.677 128.614L165.97 128.321V127.907H164.97ZM154.877 138V139H155.291L155.584 138.707L154.877 138ZM141.89 138H140.89V139H141.89V138ZM141.89 127.907V126.907H140.89V127.907H141.89ZM148.136 127.907V128.907H149.136V127.907H148.136ZM148.136 87.46V86.46H147.136V87.46H148.136ZM164.97 87.46H165.97V86.46H164.97V87.46ZM133.016 127.907H132.016V128.907H133.016V127.907ZM139.224 127.907H140.224V126.907H139.224V127.907ZM139.224 138V139H140.224V138H139.224ZM126.275 138L125.569 138.708L125.862 139H126.275V138ZM116.144 127.907H115.144V128.323L115.438 128.616L116.144 127.907ZM116.144 87.46V86.46H115.144V87.46H116.144ZM133.016 87.46H134.016V86.46H133.016V87.46ZM124.066 73.9775V72.9775H123.066V73.9775H124.066ZM136.863 73.9775H137.863V72.9775H136.863V73.9775ZM136.863 82.3945V83.3945H137.863V82.3945H136.863ZM124.066 82.3945H123.066V83.3945H124.066V82.3945ZM144.251 73.9775V72.9775H143.251V73.9775H144.251ZM157.048 73.9775H158.048V72.9775H157.048V73.9775ZM157.048 82.3945V83.3945H158.048V82.3945H157.048ZM144.251 82.3945H143.251V83.3945H144.251V82.3945ZM164.263 127.2L154.17 137.293L155.584 138.707L165.677 128.614L164.263 127.2ZM154.877 137H141.89V139H154.877V137ZM142.89 138V127.907H140.89V138H142.89ZM141.89 128.907H148.136V126.907H141.89V128.907ZM149.136 127.907V87.46H147.136V127.907H149.136ZM148.136 88.46H164.97V86.46H148.136V88.46ZM163.97 87.46V127.907H165.97V87.46H163.97ZM133.016 128.907H139.224V126.907H133.016V128.907ZM138.224 127.907V138H140.224V127.907H138.224ZM139.224 137H126.275V139H139.224V137ZM126.98 137.292L116.85 127.199L115.438 128.616L125.569 138.708L126.98 137.292ZM117.144 127.907V87.46H115.144V127.907H117.144ZM116.144 88.46H133.016V86.46H116.144V88.46ZM132.016 87.46V127.907H134.016V87.46H132.016ZM124.066 74.9775H136.863V72.9775H124.066V74.9775ZM135.863 73.9775V82.3945H137.863V73.9775H135.863ZM136.863 81.3945H124.066V83.3945H136.863V81.3945ZM125.066 82.3945V73.9775H123.066V82.3945H125.066ZM144.251 74.9775H157.048V72.9775H144.251V74.9775ZM156.048 73.9775V82.3945H158.048V73.9775H156.048ZM157.048 81.3945H144.251V83.3945H157.048V81.3945ZM145.251 82.3945V73.9775H143.251V82.3945H145.251ZM222.061 138V139H223.839L222.915 137.48L222.061 138ZM204.16 138L203.305 138.518L203.597 139H204.16V138ZM173.539 87.46V86.46H171.764L172.684 87.9781L173.539 87.46ZM191.325 87.46L192.18 86.9404L191.888 86.46H191.325V87.46ZM173.539 138H172.539V139H173.539V138ZM173.539 92.2588L174.393 91.7379L172.539 88.6999V92.2588H173.539ZM188.202 116.291H189.202V116.01L189.056 115.77L188.202 116.291ZM188.202 138V139H189.202V138H188.202ZM222.061 87.46H223.061V86.46H222.061V87.46ZM222.061 133.201L221.206 133.72L223.061 136.775V133.201H222.061ZM207.398 109.055H206.398V109.335L206.543 109.574L207.398 109.055ZM207.398 87.46V86.46H206.398V87.46H207.398ZM222.061 137H204.16V139H222.061V137ZM205.016 137.482L174.395 86.9418L172.684 87.9781L203.305 138.518L205.016 137.482ZM173.539 88.46H191.325V86.46H173.539V88.46ZM190.471 87.9796L221.206 138.52L222.915 137.48L192.18 86.9404L190.471 87.9796ZM174.539 138V92.2588H172.539V138H174.539ZM172.686 92.7796L187.349 116.812L189.056 115.77L174.393 91.7379L172.686 92.7796ZM187.202 116.291V138H189.202V116.291H187.202ZM188.202 137H173.539V139H188.202V137ZM221.061 87.46V133.201H223.061V87.46H221.061ZM222.916 132.682L208.252 108.536L206.543 109.574L221.206 133.72L222.916 132.682ZM208.398 109.055V87.46H206.398V109.055H208.398ZM207.398 88.46H222.061V86.46H207.398V88.46ZM230.211 127.222V126.222H229.211V127.222H230.211ZM235.277 127.222V128.222H236.277V127.222H235.277ZM235.277 98.2002H236.277V97.2002H235.277V98.2002ZM230.211 98.2002H229.211V99.2002H230.211V98.2002ZM230.211 87.46V86.46H229.211V87.46H230.211ZM257.176 87.46H258.176V86.46H257.176V87.46ZM257.176 98.2002V99.2002H258.176V98.2002H257.176ZM252.111 98.2002V97.2002H251.111V98.2002H252.111ZM252.111 127.222H251.111V128.222H252.111V127.222ZM257.176 127.222H258.176V126.222H257.176V127.222ZM257.176 138V139H258.176V138H257.176ZM230.211 138H229.211V139H230.211V138ZM237.371 73.9775V72.9775H236.371V73.9775H237.371ZM250.168 73.9775H251.168V72.9775H250.168V73.9775ZM250.168 82.3945V83.3945H251.168V82.3945H250.168ZM237.371 82.3945H236.371V83.3945H237.371V82.3945ZM230.211 128.222H235.277V126.222H230.211V128.222ZM236.277 127.222V98.2002H234.277V127.222H236.277ZM235.277 97.2002H230.211V99.2002H235.277V97.2002ZM231.211 98.2002V87.46H229.211V98.2002H231.211ZM230.211 88.46H257.176V86.46H230.211V88.46ZM256.176 87.46V98.2002H258.176V87.46H256.176ZM257.176 97.2002H252.111V99.2002H257.176V97.2002ZM251.111 98.2002V127.222H253.111V98.2002H251.111ZM252.111 128.222H257.176V126.222H252.111V128.222ZM256.176 127.222V138H258.176V127.222H256.176ZM257.176 137H230.211V139H257.176V137ZM231.211 138V127.222H229.211V138H231.211ZM237.371 74.9775H250.168V72.9775H237.371V74.9775ZM249.168 73.9775V82.3945H251.168V73.9775H249.168ZM250.168 81.3945H237.371V83.3945H250.168V81.3945ZM238.371 82.3945V73.9775H236.371V82.3945H238.371ZM83.009 230.478L83.9419 230.117L83.6948 229.478H83.009V230.478ZM66.4797 230.478L65.5358 230.147L65.0705 231.478H66.4797V230.478ZM69.9836 220.461V219.461H69.274L69.0397 220.131L69.9836 220.461ZM79.1243 220.461V221.461H80.5826L80.0571 220.101L79.1243 220.461ZM65.6038 185.46V184.46H64.1455L64.6709 185.82L65.6038 185.46ZM82.0188 185.46L82.9477 185.09L82.6967 184.46H82.0188V185.46ZM102.166 236V237H103.641L103.095 235.63L102.166 236ZM85.1418 236L84.209 236.36L84.4561 237H85.1418V236ZM61.9856 236V237H62.7098L62.9357 236.312L61.9856 236ZM45.7229 236L44.7863 235.65L44.2811 237H45.7229V236ZM63.7756 187.745L64.7129 187.397L63.7784 184.884L62.839 187.395L63.7756 187.745ZM71.2405 207.816L72.1906 208.128L72.2998 207.796L72.1778 207.468L71.2405 207.816ZM83.009 229.478H66.4797V231.478H83.009V229.478ZM67.4237 230.808L70.9276 220.791L69.0397 220.131L65.5358 230.147L67.4237 230.808ZM69.9836 221.461H79.1243V219.461H69.9836V221.461ZM80.0571 220.101L66.5366 185.1L64.6709 185.82L78.1914 220.821L80.0571 220.101ZM65.6038 186.46H82.0188V184.46H65.6038V186.46ZM81.0899 185.83L101.237 236.37L103.095 235.63L82.9477 185.09L81.0899 185.83ZM102.166 235H85.1418V237H102.166V235ZM86.0747 235.64L83.9419 230.117L82.0762 230.838L84.209 236.36L86.0747 235.64ZM61.9856 235H45.7229V237H61.9856V235ZM46.6595 236.35L64.7122 188.096L62.839 187.395L44.7863 235.65L46.6595 236.35ZM62.8384 188.094L70.3032 208.165L72.1778 207.468L64.7129 187.397L62.8384 188.094ZM70.2904 207.504L61.0355 235.688L62.9357 236.312L72.1906 208.128L70.2904 207.504ZM106.965 236H105.965V237H106.965V236ZM106.965 185.46V184.46H105.965V185.46H106.965ZM123.799 185.46H124.799V184.46H123.799V185.46ZM123.799 236V237H124.799V236H123.799ZM126.465 195.553H125.465V196.553H126.465V195.553ZM126.465 185.46V184.46H125.465V185.46H126.465ZM145.698 185.46L146.404 184.752L146.112 184.46H145.698V185.46ZM155.829 195.553H156.829V195.137L156.535 194.844L155.829 195.553ZM155.829 210.711L156.536 211.418L156.829 211.125V210.711H155.829ZM148.06 218.48L147.165 218.928L147.786 220.169L148.767 219.188L148.06 218.48ZM147.527 217.414L148.421 216.967L148.102 216.329L147.395 216.423L147.527 217.414ZM131.721 219.509L131.59 218.517L130.249 218.695L130.811 219.925L131.721 219.509ZM132.33 220.842V221.842H133.887L133.24 220.426L132.33 220.842ZM126.465 220.842H125.465V221.842H126.465V220.842ZM126.465 211.054V210.054H125.465V211.054H126.465ZM139.11 211.054V212.054H140.11V211.054H139.11ZM139.11 195.553H140.11V194.553H139.11V195.553ZM157.543 236V237H159.222L158.423 235.524L157.543 236ZM139.567 236L138.664 236.431L138.936 237H139.567V236ZM132.33 220.842V219.842H130.745L131.428 221.273L132.33 220.842ZM145.698 220.842V221.842H146.113L146.406 221.549L145.698 220.842ZM148.06 218.48L148.939 218.004L148.301 216.825L147.353 217.773L148.06 218.48ZM107.965 236V185.46H105.965V236H107.965ZM106.965 186.46H123.799V184.46H106.965V186.46ZM122.799 185.46V236H124.799V185.46H122.799ZM123.799 235H106.965V237H123.799V235ZM127.465 195.553V185.46H125.465V195.553H127.465ZM126.465 186.46H145.698V184.46H126.465V186.46ZM144.993 186.168L155.124 196.261L156.535 194.844L146.404 184.752L144.993 186.168ZM154.829 195.553V210.711H156.829V195.553H154.829ZM155.122 210.004L147.353 217.773L148.767 219.188L156.536 211.418L155.122 210.004ZM148.954 218.033L148.421 216.967L146.632 217.861L147.165 218.928L148.954 218.033ZM147.395 216.423L131.59 218.517L131.852 220.5L147.658 218.405L147.395 216.423ZM130.811 219.925L131.421 221.258L133.24 220.426L132.63 219.093L130.811 219.925ZM132.33 219.842H126.465V221.842H132.33V219.842ZM127.465 220.842V211.054H125.465V220.842H127.465ZM126.465 212.054H139.11V210.054H126.465V212.054ZM140.11 211.054V195.553H138.11V211.054H140.11ZM139.11 194.553H126.465V196.553H139.11V194.553ZM157.543 235H139.567V237H157.543V235ZM140.469 235.569L133.233 220.411L131.428 221.273L138.664 236.431L140.469 235.569ZM132.33 221.842H145.698V219.842H132.33V221.842ZM146.406 221.549L148.767 219.188L147.353 217.773L144.991 220.135L146.406 221.549ZM147.18 218.957L156.664 236.476L158.423 235.524L148.939 218.004L147.18 218.957ZM180.395 215.243V214.243H179.395V215.243H180.395ZM180.395 236V237H181.395V236H180.395ZM163.561 236H162.561V237H163.561V236ZM163.561 185.46V184.46H162.561V185.46H163.561ZM180.395 185.46H181.395V184.46H180.395V185.46ZM180.395 205.493H179.395V206.493H180.395V205.493ZM196.505 205.493H197.505V204.493H196.505V205.493ZM196.505 215.243V216.243H197.505V215.243H196.505ZM183.061 195.248H182.061V196.248H183.061V195.248ZM183.061 185.46V184.46H182.061V185.46H183.061ZM209.378 185.46H210.378V184.46H209.378V185.46ZM209.378 200.085V201.085H210.378V200.085H209.378ZM193.534 200.085H192.534V201.085H193.534V200.085ZM193.534 195.248H194.534V194.248H193.534V195.248ZM183.061 236H182.061V237H183.061V236ZM183.061 225.907V224.907H182.061V225.907H183.061ZM192.544 225.907V226.907H193.544V225.907H192.544ZM192.544 220.842V219.842H191.544V220.842H192.544ZM209.378 220.842H210.378V219.842H209.378V220.842ZM209.378 236V237H210.378V236H209.378ZM179.395 215.243V236H181.395V215.243H179.395ZM180.395 235H163.561V237H180.395V235ZM164.561 236V185.46H162.561V236H164.561ZM163.561 186.46H180.395V184.46H163.561V186.46ZM179.395 185.46V205.493H181.395V185.46H179.395ZM180.395 206.493H196.505V204.493H180.395V206.493ZM195.505 205.493V215.243H197.505V205.493H195.505ZM196.505 214.243H180.395V216.243H196.505V214.243ZM184.061 195.248V185.46H182.061V195.248H184.061ZM183.061 186.46H209.378V184.46H183.061V186.46ZM208.378 185.46V200.085H210.378V185.46H208.378ZM209.378 199.085H193.534V201.085H209.378V199.085ZM194.534 200.085V195.248H192.534V200.085H194.534ZM193.534 194.248H183.061V196.248H193.534V194.248ZM184.061 236V225.907H182.061V236H184.061ZM183.061 226.907H192.544V224.907H183.061V226.907ZM193.544 225.907V220.842H191.544V225.907H193.544ZM192.544 221.842H209.378V219.842H192.544V221.842ZM208.378 220.842V236H210.378V220.842H208.378ZM209.378 235H183.061V237H209.378V235ZM266.012 236V237H267.791L266.866 235.48L266.012 236ZM248.112 236L247.256 236.518L247.548 237H248.112V236ZM217.49 185.46V184.46H215.715L216.635 185.978L217.49 185.46ZM235.277 185.46L236.131 184.94L235.839 184.46H235.277V185.46ZM217.49 236H216.49V237H217.49V236ZM217.49 190.259L218.344 189.738L216.49 186.7V190.259H217.49ZM232.154 214.291H233.154V214.01L233.007 213.77L232.154 214.291ZM232.154 236V237H233.154V236H232.154ZM266.012 185.46H267.012V184.46H266.012V185.46ZM266.012 231.201L265.157 231.72L267.012 234.775V231.201H266.012ZM251.349 207.055H250.349V207.335L250.494 207.574L251.349 207.055ZM251.349 185.46V184.46H250.349V185.46H251.349ZM266.012 235H248.112V237H266.012V235ZM248.967 235.482L218.346 184.942L216.635 185.978L247.256 236.518L248.967 235.482ZM217.49 186.46H235.277V184.46H217.49V186.46ZM234.422 185.98L265.158 236.52L266.866 235.48L236.131 184.94L234.422 185.98ZM218.49 236V190.259H216.49V236H218.49ZM216.637 190.78L231.3 214.812L233.007 213.77L218.344 189.738L216.637 190.78ZM231.154 214.291V236H233.154V214.291H231.154ZM232.154 235H217.49V237H232.154V235ZM265.012 185.46V231.201H267.012V185.46H265.012ZM266.867 230.682L252.204 206.536L250.494 207.574L265.157 231.72L266.867 230.682ZM252.349 207.055V185.46H250.349V207.055H252.349ZM251.349 186.46H266.012V184.46H251.349V186.46ZM308.097 230.478L309.03 230.117L308.783 229.478H308.097V230.478ZM291.568 230.478L290.624 230.147L290.158 231.478H291.568V230.478ZM295.072 220.461V219.461H294.362L294.128 220.131L295.072 220.461ZM304.212 220.461V221.461H305.67L305.145 220.101L304.212 220.461ZM290.692 185.46V184.46H289.233L289.759 185.82L290.692 185.46ZM307.107 185.46L308.036 185.09L307.785 184.46H307.107V185.46ZM327.254 236V237H328.729L328.183 235.63L327.254 236ZM310.23 236L309.297 236.36L309.544 237H310.23V236ZM287.073 236V237H287.798L288.024 236.312L287.073 236ZM270.811 236L269.874 235.65L269.369 237H270.811V236ZM288.864 187.745L289.801 187.397L288.866 184.884L287.927 187.395L288.864 187.745ZM296.328 207.816L297.278 208.128L297.388 207.796L297.266 207.468L296.328 207.816ZM308.097 229.478H291.568V231.478H308.097V229.478ZM292.512 230.808L296.015 220.791L294.128 220.131L290.624 230.147L292.512 230.808ZM295.072 221.461H304.212V219.461H295.072V221.461ZM305.145 220.101L291.624 185.1L289.759 185.82L303.279 220.821L305.145 220.101ZM290.692 186.46H307.107V184.46H290.692V186.46ZM306.178 185.83L326.325 236.37L328.183 235.63L308.036 185.09L306.178 185.83ZM327.254 235H310.23V237H327.254V235ZM311.163 235.64L309.03 230.117L307.164 230.838L309.297 236.36L311.163 235.64ZM287.073 235H270.811V237H287.073V235ZM271.747 236.35L289.8 188.096L287.927 187.395L269.874 235.65L271.747 236.35ZM287.926 188.094L295.391 208.165L297.266 207.468L289.801 187.397L287.926 188.094ZM295.378 207.504L286.123 235.688L288.024 236.312L297.278 208.128L295.378 207.504Z" fill="#536DFE"/>
    <path d="M127.059 259.914V274H121.867V264.66H120.637V261.555H121.867V259.715L124.996 256.809H130.809V259.914H127.059ZM127.844 264.66L127.879 261.555H130.809V264.66H127.844ZM145.926 270.895L142.82 274H139.352V271.094H140.641V264.66H139.352V261.555H142.82L145.926 264.66V270.895ZM137.184 271.094H138.531V274H135.051L131.945 270.895V264.66L135.051 261.555H138.531V264.66H137.184V271.094ZM156.484 264.66H154.281V263.301L156.016 261.555H159.156L161.676 264.461V267.684H156.484V264.66ZM148.27 274V261.555H153.449V274H148.27ZM177.684 274V264.66H170.312V263.113L171.871 261.555H179.641L182.746 264.66V274H177.684ZM176.863 266.758V268.914H174.191V271.094H176.863V272.465L175.316 274H171.355L169.27 271.949V268.832L171.355 266.758H176.863ZM198.66 256.809V274H193.48V256.809H198.66ZM190.164 271.094H192.66V272.77L191.43 274H187.785L184.984 271.199V264.355L187.785 261.555H192.66V264.66H190.164V271.094ZM201.273 274V261.555H206.465V274H201.273ZM209.395 264.66H207.285V263.195L208.914 261.555H212.922L214.586 263.219V274H209.395V264.66ZM217.516 264.66H215.406V263.219L217 261.555H220.164L222.695 264.109V274H217.516V264.66ZM225.062 261.555H230.254V274H225.062V261.555ZM225.062 256.703H230.254V260.008H225.062V256.703ZM232.715 274V261.555H237.941V274H232.715ZM241.012 264.66H238.785V263.301L240.52 261.555H243.402L246.203 264.355V274H241.012V264.66ZM251.312 261.555H253.387V265.949H259.293L261.988 268.668V271.094L259.094 274H256.809V269.301H251.207L248.512 266.711V264.344L251.312 261.555ZM253.691 271.715H255.988V274L250.656 273.988L248.5 271.434V270.438H253.691V271.715ZM256.809 263.84H254.207V261.555H259.715L261.566 263.406V264.812H256.809V263.84Z" fill="white"/>
</svg>
